<svg xmlns="http://www.w3.org/2000/svg"  viewBox="0 0 24 24" width="24px" height="24px"><path d="M12,2C6.486,2,2,6.486,2,12s4.486,10,10,10s10-4.486,10-10S17.514,2,12,2z M12,18c-0.414,0-0.75-0.336-0.75-0.75	c0-0.414,0.336-0.75,0.75-0.75s0.75,0.336,0.75,0.75C12.75,17.664,12.414,18,12,18z M12.75,13.93v0.32c0,0.414-0.336,0.75-0.75,0.75	s-0.75-0.336-0.75-0.75v-1c0-0.414,0.336-0.75,0.75-0.75c1.379,0,2.5-1.122,2.5-2.5S13.379,7.5,12,7.5	c-1.094,0-2.051,0.699-2.382,1.739C9.493,9.634,9.071,9.853,8.676,9.725C8.281,9.6,8.062,9.178,8.188,8.783	C8.72,7.118,10.251,6,12,6c2.206,0,4,1.794,4,4C16,11.949,14.599,13.578,12.75,13.93z"/></svg>