<svg xmlns="http://www.w3.org/2000/svg"  viewBox="0 0 30 30" width="30px" height="30px"><path d="M 14.28125 2.0039062 C 8.86125 1.8659063 4.0044844 5.8295938 3.1464844 11.183594 C 2.5044844 15.191594 4.031375 18.872953 6.734375 21.251953 C 7.564375 21.981953 8 23.061969 8 24.167969 L 8 28 L 18 28 L 18 26.441406 C 18 25.580406 18.550187 24.816922 19.367188 24.544922 L 22.632812 23.457031 C 23.448813 23.184031 24 22.419594 24 21.558594 L 24 17.744141 L 26.271484 16.960938 A 1 1 0 0 0 26.773438 15.369141 A 1 1 0 0 0 26.732422 15.320312 L 23.958984 11.996094 C 23.557476 6.4840661 19.861115 2.1444641 14.28125 2.0039062 z"/></svg>