<svg xmlns="http://www.w3.org/2000/svg"  viewBox="0 0 48 48" width="48px" height="48px"><path fill="#a5d6a7" d="M41.783,21.044L30.234,11.98c-1.312-1.029-3.157-1.029-4.468,0l-11.548,9.064	c-1.4,1.099-2.218,2.78-2.218,4.56v17.465C12,44.135,12.865,45,13.932,45h28.136C43.135,45,44,44.135,44,43.068V25.603	C44,23.823,43.182,22.142,41.783,21.044z"/><path fill="none" stroke="#18193f" stroke-linecap="round" stroke-linejoin="round" stroke-miterlimit="10" stroke-width="3" d="M37.17,41.489h1.33c1.105,0,2-0.895,2-2V21.4c0-1.839-0.843-3.575-2.287-4.713L26.318,7.315	c-1.36-1.071-3.277-1.071-4.637,0l-5.652,4.454"/><path fill="none" stroke="#18193f" stroke-linecap="round" stroke-linejoin="round" stroke-miterlimit="10" stroke-width="3" d="M10.548,16.087l-0.761,0.6C8.343,17.825,7.5,19.561,7.5,21.4v18.089c0,1.105,0.895,2,2,2h21"/><line x1="17.5" x2="30.5" y1="33.5" y2="33.5" fill="none" stroke="#18193f" stroke-linecap="round" stroke-linejoin="round" stroke-miterlimit="10" stroke-width="3"/><path fill="none" stroke="#18193f" stroke-linejoin="round" stroke-miterlimit="10" stroke-width="3" d="M29.5,27.5H18.637"/><path fill="none" stroke="#18193f" stroke-linecap="round" stroke-linejoin="round" stroke-miterlimit="10" stroke-width="3" d="M30.085,19.5H30.5c1.657,0,3,1.343,3,3v3.246"/><path fill="none" stroke="#18193f" stroke-linecap="round" stroke-linejoin="round" stroke-miterlimit="10" stroke-width="3" d="M14.5,25.354V22.5c0-1.657,1.343-3,3-3h7.955"/><path fill="none" stroke="#18193f" stroke-linecap="round" stroke-linejoin="round" stroke-miterlimit="10" stroke-width="3" d="M18.5,33.5h-4c-1.105,0-2-0.895-2-2v-3.321c0-1.105,0.895-2,2-2h2c1.105,0,2,0.895,2,2V33.5z"/><path fill="none" stroke="#18193f" stroke-linecap="round" stroke-linejoin="round" stroke-miterlimit="10" stroke-width="3" d="M33.5,33.5h-4v-5.321c0-1.105,0.895-2,2-2h2c1.105,0,2,0.895,2,2V31.5C35.5,32.605,34.605,33.5,33.5,33.5z"/><line x1="15.5" x2="15.5" y1="33.5" y2="35.326" fill="none" stroke="#18193f" stroke-linecap="round" stroke-linejoin="round" stroke-miterlimit="10" stroke-width="3"/><line x1="32.5" x2="32.5" y1="33.5" y2="35.326" fill="none" stroke="#18193f" stroke-linecap="round" stroke-linejoin="round" stroke-miterlimit="10" stroke-width="3"/></svg>