<svg xmlns="http://www.w3.org/2000/svg"  viewBox="0 0 48 48" width="48px" height="48px"><linearGradient id="SVGID_1_" x1="37.578" x2="10.422" y1="16.023" y2="43.179" gradientUnits="userSpaceOnUse"><stop offset="0" stop-color="#fea460"/><stop offset=".033" stop-color="#feaa6a"/><stop offset=".197" stop-color="#fec497"/><stop offset=".362" stop-color="#ffd9bd"/><stop offset=".525" stop-color="#ffeada"/><stop offset=".687" stop-color="#fff5ee"/><stop offset=".846" stop-color="#fffdfb"/><stop offset="1" stop-color="#fff"/></linearGradient><path fill="url(#SVGID_1_)" d="M38.213,16.719l-11.91-9.347c-1.353-1.062-3.255-1.061-4.608,0L9.787,16.719	C8.343,17.852,7.5,19.586,7.5,21.421v18.011c0,1.1,0.892,1.992,1.992,1.992h29.016c1.1,0,1.992-0.892,1.992-1.992V21.421	C40.5,19.585,39.657,17.852,38.213,16.719z"/><path fill="none" stroke="#fe7c12" stroke-linecap="round" stroke-linejoin="round" stroke-miterlimit="10" stroke-width="3" d="M37.17,41.489h1.33c1.105,0,2-0.895,2-2V21.4c0-1.839-0.843-3.575-2.287-4.713L26.318,7.315	c-1.36-1.071-3.277-1.071-4.637,0l-5.652,4.454"/><path fill="none" stroke="#fe7c12" stroke-linecap="round" stroke-linejoin="round" stroke-miterlimit="10" stroke-width="3" d="M10.548,16.087l-0.761,0.6C8.343,17.825,7.5,19.561,7.5,21.4v18.089c0,1.105,0.895,2,2,2h21"/><line x1="17.5" x2="30.5" y1="33.5" y2="33.5" fill="none" stroke="#fe7c12" stroke-linecap="round" stroke-linejoin="round" stroke-miterlimit="10" stroke-width="3"/><path fill="none" stroke="#fe7c12" stroke-linejoin="round" stroke-miterlimit="10" stroke-width="3" d="M29.5,27.5H18.637"/><path fill="none" stroke="#fe7c12" stroke-linecap="round" stroke-linejoin="round" stroke-miterlimit="10" stroke-width="3" d="M30.085,19.5H30.5c1.657,0,3,1.343,3,3v3.246"/><path fill="none" stroke="#fe7c12" stroke-linecap="round" stroke-linejoin="round" stroke-miterlimit="10" stroke-width="3" d="M14.5,25.354V22.5c0-1.657,1.343-3,3-3h7.955"/><path fill="none" stroke="#fe7c12" stroke-linecap="round" stroke-linejoin="round" stroke-miterlimit="10" stroke-width="3" d="M18.5,33.5h-4c-1.105,0-2-0.895-2-2v-3.321c0-1.105,0.895-2,2-2h2c1.105,0,2,0.895,2,2V33.5z"/><path fill="none" stroke="#fe7c12" stroke-linecap="round" stroke-linejoin="round" stroke-miterlimit="10" stroke-width="3" d="M33.5,33.5h-4v-5.321c0-1.105,0.895-2,2-2h2c1.105,0,2,0.895,2,2V31.5C35.5,32.605,34.605,33.5,33.5,33.5z"/><line x1="15.5" x2="15.5" y1="33.5" y2="35.326" fill="none" stroke="#fe7c12" stroke-linecap="round" stroke-linejoin="round" stroke-miterlimit="10" stroke-width="3"/><line x1="32.5" x2="32.5" y1="33.5" y2="35.326" fill="none" stroke="#fe7c12" stroke-linecap="round" stroke-linejoin="round" stroke-miterlimit="10" stroke-width="3"/></svg>